<?xml version="1.0" encoding="UTF-8" standalone="no"?>
<svg
   xmlns:dc="http://purl.org/dc/elements/1.1/"
   xmlns:cc="http://creativecommons.org/ns#"
   xmlns:rdf="http://www.w3.org/1999/02/22-rdf-syntax-ns#"
   xmlns:svg="http://www.w3.org/2000/svg"
   xmlns="http://www.w3.org/2000/svg"
   viewBox="0 0 400 400"
   height="400"
   width="400"
   xml:space="preserve"
   id="svg2"
   version="1.1"><metadata
     id="metadata8"><rdf:RDF><cc:Work
         rdf:about=""><dc:format>image/svg+xml</dc:format><dc:type
           rdf:resource="http://purl.org/dc/dcmitype/StillImage" /></cc:Work></rdf:RDF></metadata><defs
     id="defs6"><clipPath
       id="clipPath18"
       clipPathUnits="userSpaceOnUse"><path
         id="path16"
         d="M 0,300 H 300 V 0 H 0 Z" /></clipPath></defs><g
     transform="matrix(1.3333333,0,0,-1.3333333,0,400)"
     id="g10"><g
       id="g12"><g
         clip-path="url(#clipPath18)"
         id="g14"><g
           transform="translate(133.3062,141.3486)"
           id="g20"><path
             id="path22"
             style="fill:#39478d;fill-opacity:1;fill-rule:nonzero;stroke:none"
             d="m 0,0 h 2.356 c 1.01,0 1.894,0.07 2.651,0.212 0.758,0.14 1.473,0.435 2.146,0.886 1.01,0.675 1.515,1.688 1.515,3.04 0,0.731 -0.168,1.35 -0.505,1.857 C 7.826,6.501 7.293,6.951 6.564,7.346 6.171,7.57 5.673,7.726 5.07,7.81 4.467,7.895 3.871,7.937 3.282,7.937 H 0 Z M 0,13.509 H 1.094 2.02 c 0.476,0 0.995,0.042 1.557,0.126 0.56,0.085 1.023,0.212 1.388,0.38 1.178,0.535 1.767,1.492 1.767,2.871 0,0.647 -0.168,1.203 -0.505,1.667 C 5.891,19.018 5.414,19.39 4.797,19.672 4.6,19.756 4.34,19.82 4.018,19.862 3.695,19.904 3.338,19.925 2.945,19.925 H 0 Z M -5.807,-5.656 v 31.238 h 6.564 c 1.571,0 2.938,-0.071 4.103,-0.211 1.163,-0.142 2.265,-0.465 3.303,-0.971 1.262,-0.675 2.307,-1.661 3.134,-2.955 0.828,-1.295 1.242,-2.646 1.242,-4.052 0,-1.295 -0.295,-2.485 -0.884,-3.568 C 11.066,12.742 10.21,11.932 9.088,11.398 10.799,10.863 12.111,9.935 13.023,8.612 13.934,7.289 14.39,5.713 14.39,3.884 14.39,0.76 13.128,-1.717 10.604,-3.546 9.509,-4.362 8.148,-4.938 6.522,-5.276 5.259,-5.529 3.758,-5.656 2.02,-5.656 Z" /></g><g
           transform="translate(152.3242,135.6924)"
           id="g24"><path
             id="path26"
             style="fill:#39478d;fill-opacity:1;fill-rule:nonzero;stroke:none"
             d="M 0,0 V 31.238 H 5.807 V 17.729 l 9.677,13.509 h 6.902 L 10.604,15.873 22.386,0 H 15.484 L 5.807,13.677 V 0 Z" /></g><g
           transform="translate(116.7368,114.6191)"
           id="g28"><path
             id="path30"
             style="fill:#408ac9;fill-opacity:1;fill-rule:nonzero;stroke:none"
             d="m 0,0 v 12.284 h -2.674 v 2.717 H 5.387 V 12.284 H 2.674 L 2.674,0 Z" /></g><g
           transform="translate(126.3706,122.9707)"
           id="g32"><path
             id="path34"
             style="fill:#408ac9;fill-opacity:1;fill-rule:nonzero;stroke:none"
             d="m 0,0 h 0.472 0.59 c 0.511,0 0.989,0.064 1.435,0.192 0.446,0.129 0.79,0.359 1.032,0.69 0.243,0.331 0.364,0.713 0.364,1.145 0,0.959 -0.472,1.554 -1.415,1.785 C 2.084,3.893 1.625,3.933 1.101,3.933 H 0 Z M 0,-8.352 H -2.713 V 6.649 H 1.062 C 1.9,6.649 2.579,6.605 3.097,6.518 3.615,6.43 4.149,6.196 4.699,5.818 5.25,5.439 5.699,4.909 6.046,4.227 6.394,3.544 6.567,2.824 6.567,2.067 6.567,1.324 6.423,0.622 6.135,-0.04 5.846,-0.703 5.414,-1.271 4.837,-1.743 4.391,-2.136 3.808,-2.405 3.087,-2.554 2.576,-2.662 1.914,-2.716 1.101,-2.716 H 0.511 0 Z" /></g><path
           id="path36"
           style="fill:#408ac9;fill-opacity:1;fill-rule:nonzero;stroke:none"
           d="m 134.904,117.336 h 2.635 v -2.717 h -2.635 z" /><g
           transform="translate(140.5273,114.6191)"
           id="g38"><path
             id="path40"
             style="fill:#408ac9;fill-opacity:1;fill-rule:nonzero;stroke:none"
             d="M 0,0 V 15.001 H 2.713 V 9 h 5.191 v 6.001 h 2.674 V 0 H 7.904 V 6.284 H 2.713 V 0 Z" /></g><g
           transform="translate(164.3965,118.7139)"
           id="g42"><path
             id="path44"
             style="fill:#408ac9;fill-opacity:1;fill-rule:nonzero;stroke:none"
             d="M 0,0 H 3.107 C 2.57,-1.338 1.672,-2.416 0.414,-3.233 -0.845,-4.051 -2.188,-4.46 -3.617,-4.46 c -2.071,0 -3.848,0.777 -5.328,2.332 -1.483,1.554 -2.223,3.399 -2.223,5.533 0,2.136 0.734,3.967 2.203,5.494 1.467,1.527 3.225,2.29 5.27,2.29 1.494,0 2.88,-0.415 4.158,-1.246 C 1.74,9.112 2.648,8 3.186,6.608 H 0.119 c -0.459,0.581 -1.026,1.038 -1.701,1.369 -0.676,0.331 -1.38,0.497 -2.113,0.497 -1.312,0 -2.432,-0.507 -3.364,-1.521 -0.929,-1.014 -1.395,-2.224 -1.395,-3.629 0,-1.351 0.478,-2.533 1.435,-3.547 0.956,-1.013 2.078,-1.52 3.363,-1.52 0.707,0 1.363,0.144 1.966,0.435 C -1.088,-1.017 -0.523,-0.581 0,0" /></g><g
           transform="translate(169.4697,114.6191)"
           id="g46"><path
             id="path48"
             style="fill:#408ac9;fill-opacity:1;fill-rule:nonzero;stroke:none"
             d="M 0,0 V 15.001 H 3.696 L 7.589,3.527 11.522,15.001 h 3.657 V 0 H 12.505 L 12.503,11.23 8.736,-0.002 6.435,-0.006 2.706,11.228 2.714,0 Z" /></g><g
           transform="translate(99.6367,170.7817)"
           id="g50"><path
             id="path52"
             style="fill:#39478d;fill-opacity:1;fill-rule:nonzero;stroke:none"
             d="M 0,0 52.583,32.629 52.428,92.418 0.05,61.699 Z" /></g><g
           transform="translate(205.125,170.811)"
           id="g54"><path
             id="path56"
             style="fill:#408ac9;fill-opacity:1;fill-rule:nonzero;stroke:none"
             d="m 0,0 -52.905,32.356 -0.153,59.79 52.69,-30.448 z" /></g><g
           transform="translate(205.0146,170.5845)"
           id="g58"><path
             id="path60"
             style="fill:#39478d;fill-opacity:1;fill-rule:nonzero;stroke:none"
             d="m 0,0 -0.104,-57.825 49.525,-30.357 1.576,56.689 z" /></g><g
           transform="translate(150.7109,88.1348)"
           id="g62"><path
             id="path64"
             style="fill:#408ac9;fill-opacity:1;fill-rule:nonzero;stroke:none"
             d="M 0,0 54.11,24.74 103.511,-5.807 51.087,-31.359 Z" /></g><g
           transform="translate(151.0459,88.3848)"
           id="g66"><path
             id="path68"
             style="fill:#39478d;fill-opacity:1;fill-rule:nonzero;stroke:none"
             d="M 0,0 -51.669,24.574 -99.123,-5.457 -49.074,-30.824 Z" /></g><g
           transform="translate(99.4063,170.4146)"
           id="g70"><path
             id="path72"
             style="fill:#408ac9;fill-opacity:1;fill-rule:nonzero;stroke:none"
             d="m 0,0 0.165,-57.336 -47.456,-30.028 -1.577,56.211 z" /></g></g></g></g></svg>